<svg width="36" height="34" viewBox="0 0 36 34" fill="none" xmlns="http://www.w3.org/2000/svg">
<path fill-rule="evenodd" clip-rule="evenodd" d="M30.0376 27.3922C29.9235 27.3922 29.7714 27.3162 29.7334 27.2021L28.6305 24.3877H19.9973L19.0164 27.076L21.4877 33.4488C21.6018 33.677 21.4497 33.8672 21.1834 33.8672H16.4675C16.3534 33.8672 16.2013 33.7911 16.1633 33.677L15.0604 30.8627H6.42718L5.40033 33.677C5.3623 33.7911 5.21018 33.8672 5.05805 33.8672H0.380165C0.0759128 33.8672 -0.0762135 33.677 0.0378812 33.4488L10.4205 6.6746C10.5346 6.40837 10.991 6.40837 11.1051 6.6746L16.2924 20.0514L23.9906 0.199667C24.1047 -0.0665556 24.5611 -0.0665556 24.6752 0.199667L35.0578 26.9739C35.1719 27.2021 35.0198 27.3922 34.7535 27.3922H30.0376ZM26.9951 19.9L24.3329 11.9134L21.6326 19.9H26.9951ZM13.425 26.3749L10.7628 18.3883L8.06254 26.3749H13.425Z" fill="#FF9A00"/>
</svg>
